<svg width="29" height="29" viewBox="0 0 29 29" fill="none" xmlns="http://www.w3.org/2000/svg">
<path d="M6.90625 10.7853L8.625 11.5353C8.8125 11.1811 9 10.8322 9.1875 10.4884C9.375 10.1447 9.58333 9.7957 9.8125 9.44153L8.5 9.19153L6.90625 10.7853ZM11.7812 13.9103L15.0625 17.1915C16.0625 16.7124 17.0104 16.1759 17.9062 15.5822C18.8021 14.9884 19.6771 14.2644 20.5312 13.4103C21.8854 12.0561 22.9635 10.5665 23.7656 8.94153C24.5677 7.31653 24.9583 5.68112 24.9375 4.03528C23.2917 4.01445 21.6562 4.40507 20.0312 5.20716C18.4062 6.00924 16.9167 7.08737 15.5625 8.44153C14.7083 9.2957 13.9844 10.1707 13.3906 11.0665C12.7969 11.9624 12.2604 12.9103 11.7812 13.9103ZM17.7188 11.254C17.2812 10.8165 17.0625 10.2801 17.0625 9.64466C17.0625 9.00924 17.2812 8.47278 17.7188 8.03528C18.1562 7.59778 18.6927 7.37903 19.3281 7.37903C19.9635 7.37903 20.5 7.59778 20.9375 8.03528C21.375 8.47278 21.5938 9.00924 21.5938 9.64466C21.5938 10.2801 21.375 10.8165 20.9375 11.254C20.5 11.6915 19.9635 11.9103 19.3281 11.9103C18.6927 11.9103 18.1562 11.6915 17.7188 11.254ZM18.1562 22.0665L19.7812 20.4728L19.5312 19.1603C19.1771 19.3894 18.8281 19.5978 18.4844 19.7853C18.1406 19.9728 17.7917 20.1603 17.4375 20.3478L18.1562 22.0665ZM28.8438 0.129032C29.1771 3.4832 28.875 6.46237 27.9375 9.06653C27 11.6707 25.4583 14.0457 23.3125 16.1915C23.2708 16.2332 23.224 16.2853 23.1719 16.3478C23.1198 16.4103 23.0729 16.4624 23.0312 16.504L23.6562 19.6915C23.7812 20.3374 23.75 20.9728 23.5625 21.5978C23.375 22.2228 23.0417 22.7749 22.5625 23.254L16.8438 28.9728L13.5625 21.254L7.71875 15.4103L0 12.129L5.71875 6.41028C6.19792 5.93112 6.75 5.59778 7.375 5.41028C8 5.22278 8.63542 5.19153 9.28125 5.31653L12.4688 5.94153C12.5104 5.89987 12.5573 5.86341 12.6094 5.83216C12.6615 5.80091 12.7083 5.76445 12.75 5.72278C14.8958 3.57695 17.276 2.02487 19.8906 1.06653C22.5052 0.108199 25.4896 -0.204301 28.8438 0.129032ZM3.15625 19.379C4.09375 18.4415 5.20833 17.9676 6.5 17.9572C7.79167 17.9467 8.90625 18.4103 9.84375 19.3478C10.7812 20.2853 11.2448 21.3999 11.2344 22.6915C11.224 23.9832 10.75 25.0978 9.8125 26.0353C9.125 26.7228 7.96354 27.3113 6.32812 27.8009C4.69271 28.2905 2.70833 28.6394 0.375 28.8478C0.583333 26.5144 0.927083 24.5249 1.40625 22.879C1.88542 21.2332 2.46875 20.0665 3.15625 19.379ZM5.96875 22.1603C5.80208 22.3269 5.65625 22.5717 5.53125 22.8947C5.40625 23.2176 5.30208 23.5874 5.21875 24.004C5.63542 23.9207 6.00521 23.8113 6.32812 23.6759C6.65104 23.5405 6.89583 23.3894 7.0625 23.2228C7.22917 23.0561 7.3125 22.8738 7.3125 22.6759C7.3125 22.478 7.22917 22.2957 7.0625 22.129C6.89583 21.9624 6.71354 21.8842 6.51562 21.8947C6.31771 21.9051 6.13542 21.9936 5.96875 22.1603Z" fill="#2B8CEE"/>
</svg>
